<?xml version="1.0" standalone="no"?>
<!DOCTYPE svg PUBLIC "-//W3C//DTD SVG 20010904//EN"
 "http://www.w3.org/TR/2001/REC-SVG-20010904/DTD/svg10.dtd">
<svg version="1.0" xmlns="http://www.w3.org/2000/svg"
 width="360.000000pt" height="360.000000pt" viewBox="0 0 360.000000 360.000000"
 preserveAspectRatio="xMidYMid meet">
<metadata>
Created by potrace 1.14, written by Peter Selinger 2001-2017
</metadata>
<g transform="translate(0.000000,360.000000) scale(0.100000,-0.100000)"
fill="#000000" stroke="none">
<path d="M1588 3449 c-14 -6 -29 -17 -32 -25 -4 -11 5 -14 45 -14 35 0 51 4
56 15 3 9 4 17 2 19 -12 11 -48 13 -71 5z"/>
<path d="M1911 3440 c-13 -6 -22 -12 -20 -14 2 -2 82 -18 178 -36 190 -34 270
-59 406 -128 233 -116 455 -298 600 -490 46 -61 153 -260 190 -352 7 -17 24
-29 52 -38 l43 -14 -22 -18 c-21 -17 -22 -21 -10 -66 11 -42 42 -312 42 -370
0 -58 51 -68 107 -20 l27 24 -13 65 c-12 61 -11 67 9 107 48 94 -7 243 -174
473 -127 176 -136 189 -136 198 0 5 24 6 54 3 53 -6 55 -6 88 31 18 21 37 44
41 51 28 49 -163 299 -300 392 -142 97 -388 195 -407 163 -3 -5 36 -32 86 -59
121 -65 222 -137 308 -219 63 -59 140 -151 140 -167 0 -3 -28 -6 -61 -6 -58 0
-64 2 -93 36 -148 170 -234 239 -401 319 -123 60 -243 97 -384 120 -126 20
-319 28 -350 15z"/>
<path d="M1035 3365 c-26 -9 -60 -37 -100 -80 -59 -65 -61 -66 -112 -65 l-51
0 -50 -64 c-34 -43 -69 -74 -109 -96 -32 -18 -89 -52 -128 -76 -74 -45 -145
-66 -145 -44 0 14 129 177 200 254 25 27 71 66 102 87 32 22 63 49 69 61 11
20 10 21 -37 14 -67 -9 -147 -48 -173 -85 -13 -18 -25 -49 -28 -71 -5 -35 -8
-38 -27 -30 -30 11 -49 -2 -84 -58 -26 -42 -132 -169 -154 -183 -4 -3 -11 -34
-14 -70 -2 -35 -7 -70 -10 -78 -4 -11 6 -13 46 -8 l51 6 -20 -32 c-11 -18 -40
-63 -66 -102 -76 -116 -98 -171 -99 -245 0 -69 28 -151 61 -175 15 -11 11 -24
-43 -141 l-59 -129 -3 -145 c-5 -154 12 -339 33 -380 8 -14 32 -43 55 -65 23
-22 50 -57 61 -78 20 -39 52 -50 63 -22 3 9 -5 50 -19 93 -46 146 -59 252 -60
467 0 241 21 362 97 555 173 439 485 758 906 925 50 21 95 41 98 46 18 29
-178 40 -251 14z m-645 -635 c0 -5 -5 -10 -11 -10 -5 0 -7 5 -4 10 3 6 8 10
11 10 2 0 4 -4 4 -10z"/>
<path d="M1630 3195 c-8 -2 -67 -11 -130 -20 -131 -20 -208 -39 -236 -60 -10
-8 -28 -15 -39 -15 -39 -1 -132 -53 -240 -135 -126 -96 -228 -196 -279 -275
-39 -60 -47 -61 -17 -2 11 20 38 55 61 77 63 60 120 134 114 149 -3 7 2 19 11
26 13 11 14 10 9 -4 -3 -9 -1 -16 4 -16 14 0 52 49 52 66 0 9 11 14 31 14 18
0 52 15 87 38 31 22 70 45 86 53 31 15 46 39 24 39 -37 0 -252 -97 -309 -140
-151 -113 -304 -301 -399 -489 -82 -164 -122 -408 -100 -623 31 -321 147 -570
382 -825 97 -107 112 -118 262 -208 87 -52 184 -104 215 -116 114 -43 329 -77
505 -80 l71 -2 -95 -9 c-287 -28 -567 41 -794 195 -127 86 -310 286 -369 403
-30 59 -75 116 -87 109 -4 -2 -3 -28 2 -57 33 -185 313 -468 589 -597 214
-101 498 -161 756 -161 66 0 95 -4 112 -17 32 -22 83 -18 183 13 99 31 208 85
314 154 42 27 83 50 90 50 7 0 24 12 38 27 21 22 27 24 40 14 9 -8 16 -21 16
-29 0 -12 -3 -13 -12 -4 -7 7 -18 12 -25 12 -17 0 -6 -29 26 -63 25 -28 28
-28 101 -21 74 6 110 23 110 50 0 10 -6 11 -26 4 -47 -18 -93 -12 -121 16 -21
22 -25 32 -20 66 3 25 16 51 33 69 l28 29 101 -6 101 -7 38 34 c34 30 38 37
33 70 -6 48 -46 135 -81 176 -15 17 -43 37 -62 43 -33 11 -38 10 -73 -18 -36
-29 -39 -30 -55 -14 -26 26 -132 18 -241 -20 -118 -40 -147 -55 -230 -122 -86
-69 -171 -112 -250 -127 -57 -11 -251 -7 -335 7 l-35 5 25 -20 c31 -25 84 -39
183 -50 91 -10 104 -17 52 -27 -46 -8 -168 2 -260 23 -251 57 -496 245 -608
468 -95 190 -112 501 -38 720 32 95 72 162 130 220 l41 39 0 -94 c0 -132 17
-191 78 -282 54 -81 86 -111 141 -134 71 -30 69 -5 -4 59 -30 26 -66 67 -80
90 -28 49 -57 127 -47 127 4 -1 32 -38 62 -83 47 -69 63 -86 110 -109 73 -36
215 -65 236 -47 13 10 12 15 -7 36 -13 12 -28 23 -35 23 -7 0 -15 3 -18 8 -2
4 30 8 73 8 99 2 166 30 224 94 46 51 82 137 72 170 -12 37 -39 19 -57 -39
-22 -66 -46 -94 -115 -127 -128 -63 -284 -8 -350 125 -29 58 -25 162 10 233
52 105 134 153 282 165 263 20 559 -225 620 -513 28 -131 10 -294 -43 -408
-38 -82 -132 -225 -153 -231 -8 -3 -45 -25 -81 -49 -105 -68 -188 -91 -338
-91 -150 0 -197 12 -324 85 -116 67 -151 59 -81 -19 60 -67 234 -145 379 -170
80 -15 135 -14 209 3 34 8 89 19 121 25 62 11 110 36 101 51 -3 5 22 23 55 41
75 40 183 152 227 234 76 144 115 384 88 538 -9 45 -18 102 -22 127 l-6 45 38
-45 c56 -66 61 -77 85 -167 12 -45 30 -89 40 -98 17 -16 19 -15 28 2 19 35 24
140 12 243 -49 425 -294 716 -708 842 -88 27 -100 33 -80 41 98 38 435 -93
618 -240 205 -165 305 -350 329 -611 12 -128 0 -259 -34 -376 -14 -50 -30
-119 -34 -155 -9 -71 -23 -109 -57 -156 -26 -36 -39 -75 -26 -75 21 0 54 39
102 120 100 171 140 330 140 566 0 171 -9 220 -65 344 -24 52 -48 112 -55 133
-20 65 -129 217 -220 308 -146 146 -335 255 -527 305 -77 20 -129 26 -243 29
-80 2 -152 2 -160 0z"/>
<path d="M1880 2272 c0 -35 22 -68 39 -57 21 12 -5 85 -30 85 -5 0 -9 -13 -9
-28z"/>
<path d="M3470 1690 c-17 -17 -20 -31 -18 -68 3 -39 7 -47 25 -50 46 -7 72 87
34 122 -18 17 -20 17 -41 -4z"/>
<path d="M3362 1513 c-6 -10 -13 -34 -17 -53 -15 -77 -86 -271 -137 -372 -116
-232 -309 -452 -518 -590 -104 -69 -278 -172 -303 -181 -17 -5 2 -27 24 -27
33 0 21 -21 -21 -37 -22 -9 -40 -20 -40 -25 0 -15 33 -8 74 16 23 13 68 32
101 41 118 34 306 145 425 249 69 61 78 66 121 66 57 0 109 -10 109 -20 0 -18
-182 -190 -247 -233 -39 -26 -134 -77 -212 -113 -77 -37 -141 -70 -141 -74 0
-12 123 9 205 36 140 46 257 117 378 233 135 129 167 194 145 290 -13 52 -14
53 -52 57 -21 2 -41 5 -43 8 -2 2 17 35 43 72 70 103 264 503 264 545 0 19 -9
48 -20 66 -33 56 -119 83 -138 46z m-825 -1189 c-3 -3 -12 -4 -19 -1 -8 3 -5
6 6 6 11 1 17 -2 13 -5z"/>
<path d="M396 1453 c8 -25 16 -49 19 -51 10 -10 5 60 -5 79 -20 36 -28 19 -14
-28z"/>
<path d="M242 1164 c-26 -18 -28 -36 -7 -54 8 -7 15 -20 15 -29 -1 -10 -6 -6
-16 12 -18 33 -40 30 -37 -4 2 -39 71 -191 117 -262 l43 -66 -29 -7 -30 -6 4
-67 c3 -51 9 -74 27 -97 48 -62 291 -282 332 -302 130 -62 132 -24 5 86 -83
71 -186 190 -186 213 0 21 48 -6 167 -92 108 -78 131 -91 203 -109 46 -12 121
-36 169 -55 47 -18 120 -39 161 -45 41 -6 87 -13 103 -16 53 -11 26 13 -35 30
-192 52 -454 225 -628 414 -102 111 -138 160 -229 316 -45 77 -83 141 -84 142
-14 12 -47 11 -65 -2z"/>
<path d="M2224 266 c-10 -8 -16 -18 -12 -22 10 -9 58 12 58 26 0 14 -23 12
-46 -4z"/>
<path d="M2086 231 c-14 -5 -16 -10 -7 -15 15 -9 41 -1 41 14 0 11 -7 12 -34
1z"/>
<path d="M1800 210 c-62 -5 -64 -6 -36 -18 42 -18 196 -19 224 -2 12 8 22 18
22 22 0 9 -110 8 -210 -2z"/>
<path d="M2185 200 c-8 -13 25 -13 45 0 12 8 9 10 -12 10 -15 0 -30 -4 -33
-10z"/>
</g>
</svg>
